Monda-Light-Italic.ufo
<glyph name="ampersand" format="1">
  <advance width="1484"/>
  <unicode hex="0026"/>
  <outline>
    <contour>
      <point x="594" y="-22" type="curve" smooth="yes"/>
      <point x="847" y="-22"/>
      <point x="1002" y="35"/>
      <point x="1091" y="121" type="curve"/>
      <point x="1219" y="-17" type="line"/>
      <point x="1301" y="60" type="line"/>
      <point x="1151" y="232" type="line"/>
      <point x="1179" y="311"/>
      <point x="1189" y="384"/>
      <point x="1203" y="471" type="curve" smooth="yes"/>
      <point x="1248" y="752" type="line"/>
      <point x="1109" y="752" type="line"/>
      <point x="1055" y="409" type="line" smooth="yes"/>
      <point x="1052" y="393"/>
      <point x="1049" y="370"/>
      <point x="1044" y="356" type="curve"/>
      <point x="567" y="881" type="line" smooth="yes"/>
      <point x="490" y="976"/>
      <point x="462" y="1034"/>
      <point x="476" y="1112" type="curve" smooth="yes"/>
      <point x="495" y="1241"/>
      <point x="555" y="1347"/>
      <point x="769" y="1347" type="curve" smooth="yes"/>
      <point x="957" y="1347"/>
      <point x="1026" y="1309"/>
      <point x="1004" y="1171" type="curve" smooth="yes"/>
      <point x="992" y="1100" type="line"/>
      <point x="1115" y="1100" type="line"/>
      <point x="1132" y="1212" type="line" smooth="yes"/>
      <point x="1171" y="1448"/>
      <point x="1019" y="1469"/>
      <point x="770" y="1469" type="curve" smooth="yes"/>
      <point x="452" y="1469"/>
      <point x="356" y="1280"/>
      <point x="332" y="1128" type="curve" smooth="yes"/>
      <point x="308" y="974"/>
      <point x="367" y="908"/>
      <point x="457" y="811" type="curve"/>
      <point x="255" y="754"/>
      <point x="178" y="627"/>
      <point x="146" y="426" type="curve" smooth="yes"/>
      <point x="118" y="252"/>
      <point x="151" y="-22"/>
    </contour>
    <contour>
      <point x="610" y="85" type="curve" smooth="yes"/>
      <point x="354" y="85"/>
      <point x="274" y="226"/>
      <point x="307" y="432" type="curve" smooth="yes"/>
      <point x="326" y="554"/>
      <point x="361" y="687"/>
      <point x="527" y="734" type="curve"/>
      <point x="1022" y="201" type="line"/>
      <point x="946" y="99"/>
      <point x="842" y="85"/>
    </contour>
  </outline>
</glyph>
<glyph name="parenleft" format="1">
  <advance width="661"/>
  <unicode hex="0028"/>
  <outline>
    <contour>
      <point x="426" y="-145" type="curve"/>
      <point x="444" y="-34" type="line"/>
      <point x="124" y="-34"/>
      <point x="205" y="172"/>
      <point x="245" y="420" type="curve" smooth="yes"/>
      <point x="334" y="982" type="line" smooth="yes"/>
      <point x="373" y="1230"/>
      <point x="357" y="1450"/>
      <point x="679" y="1450" type="curve"/>
      <point x="697" y="1562" type="line"/>
      <point x="207" y="1562"/>
      <point x="231" y="1219"/>
      <point x="188" y="943" type="curve" smooth="yes"/>
      <point x="109" y="452" type="line" smooth="yes"/>
      <point x="68" y="182"/>
      <point x="-64" y="-144"/>
    </contour>
  </outline>
</glyph>
<glyph name="period" format="1">
  <advance width="624"/>
  <unicode hex="002E"/>
  <outline>
    <contour>
      <point x="182" y="0" type="line"/>
      <point x="413" y="0" type="line"/>
      <point x="447" y="217" type="line"/>
      <point x="216" y="217" type="line"/>
    </contour>
  </outline>
</glyph>
<glyph name="zero" format="1">
  <advance width="1148"/>
  <unicode hex="0030"/>
  <outline>
    <contour>
      <point x="486" y="101" type="curve" smooth="yes"/>
      <point x="155" y="101"/>
      <point x="208" y="358"/>
      <point x="262" y="690" type="curve" smooth="yes"/>
      <point x="266" y="722" type="line" smooth="yes"/>
      <point x="318" y="1056"/>
      <point x="357" y="1328"/>
      <point x="680" y="1328" type="curve" smooth="yes"/>
      <point x="1003" y="1328"/>
      <point x="958" y="1056"/>
      <point x="907" y="722" type="curve" smooth="yes"/>
      <point x="902" y="690" type="line" smooth="yes"/>
      <point x="849" y="358"/>
      <point x="817" y="101"/>
    </contour>
    <contour>
      <point x="466" y="-23" type="curve" smooth="yes"/>
      <point x="1004" y="-23"/>
      <point x="1005" y="389"/>
      <point x="1055" y="712" type="curve" smooth="yes"/>
      <point x="1052" y="688" type="line" smooth="yes"/>
      <point x="1103" y="1014"/>
      <point x="1236" y="1451"/>
      <point x="700" y="1451" type="curve" smooth="yes"/>
      <point x="168" y="1451"/>
      <point x="168" y="1012"/>
      <point x="117" y="686" type="curve" smooth="yes"/>
      <point x="121" y="715" type="line" smooth="yes"/>
      <point x="71" y="393"/>
      <point x="-66" y="-23"/>
    </contour>
  </outline>
</glyph>
<glyph name="three" format="1">
  <advance width="1173"/>
  <unicode hex="0033"/>
  <outline>
    <contour>
      <point x="547" y="-23" type="curve" smooth="yes"/>
      <point x="804" y="-23"/>
      <point x="977" y="112"/>
      <point x="1020" y="381" type="curve" smooth="yes"/>
      <point x="1063" y="661"/>
      <point x="972" y="732"/>
      <point x="802" y="761" type="curve"/>
      <point x="989" y="785"/>
      <point x="1060" y="886"/>
      <point x="1092" y="1085" type="curve" smooth="yes"/>
      <point x="1135" y="1353"/>
      <point x="980" y="1451"/>
      <point x="773" y="1451" type="curve" smooth="yes"/>
      <point x="547" y="1451"/>
      <point x="328" y="1430"/>
      <point x="265" y="1020" type="curve"/>
      <point x="405" y="1020" type="line"/>
      <point x="453" y="1325"/>
      <point x="549" y="1326"/>
      <point x="751" y="1326" type="curve" smooth="yes"/>
      <point x="947" y="1326"/>
      <point x="987" y="1235"/>
      <point x="965" y="1089" type="curve" smooth="yes"/>
      <point x="936" y="907"/>
      <point x="937" y="818"/>
      <point x="574" y="818" type="curve"/>
      <point x="555" y="699" type="line"/>
      <point x="901" y="699"/>
      <point x="930" y="639"/>
      <point x="889" y="375" type="curve" smooth="yes"/>
      <point x="861" y="202"/>
      <point x="777" y="103"/>
      <point x="583" y="103" type="curve" smooth="yes"/>
      <point x="352" y="103"/>
      <point x="275" y="131"/>
      <point x="299" y="428" type="curve"/>
      <point x="159" y="428" type="line"/>
      <point x="150" y="60"/>
      <point x="222" y="-23"/>
    </contour>
  </outline>
</glyph>
<glyph name="nine" format="1">
  <advance width="1173"/>
  <unicode hex="0039"/>
  <outline>
    <contour>
      <point x="315" y="0" type="line"/>
      <point x="443" y="0" type="line"/>
      <point x="861" y="562" type="line" smooth="yes"/>
      <point x="992" y="743"/>
      <point x="1060" y="905"/>
      <point x="1077" y="1018" type="curve" smooth="yes"/>
      <point x="1129" y="1348"/>
      <point x="949" y="1451"/>
      <point x="709" y="1451" type="curve" smooth="yes"/>
      <point x="476" y="1451"/>
      <point x="240" y="1348"/>
      <point x="187" y="1016" type="curve" smooth="yes"/>
      <point x="138" y="703"/>
      <point x="304" y="567"/>
      <point x="590" y="567" type="curve" smooth="yes"/>
      <point x="668" y="567"/>
      <point x="740" y="591"/>
      <point x="791" y="615" type="curve"/>
    </contour>
    <contour>
      <point x="587" y="700" type="curve" smooth="yes"/>
      <point x="416" y="700"/>
      <point x="272" y="738"/>
      <point x="316" y="1016" type="curve" smooth="yes"/>
      <point x="358" y="1282"/>
      <point x="496" y="1320"/>
      <point x="687" y="1320" type="curve" smooth="yes"/>
      <point x="886" y="1320"/>
      <point x="996" y="1281"/>
      <point x="951" y="1010" type="curve" smooth="yes"/>
      <point x="913" y="771"/>
      <point x="772" y="700"/>
    </contour>
  </outline>
</glyph>
<glyph name="equal" format="1">
  <advance width="1472"/>
  <unicode hex="003D"/>
  <outline>
    <contour>
      <point x="256" y="525" type="line"/>
      <point x="1146" y="525" type="line"/>
      <point x="1166" y="658" type="line"/>
      <point x="277" y="658" type="line"/>
    </contour>
    <contour>
      <point x="306" y="844" type="line"/>
      <point x="1195" y="844" type="line"/>
      <point x="1216" y="977" type="line"/>
      <point x="326" y="977" type="line"/>
    </contour>
  </outline>
</glyph>
<glyph name="question" format="1">
  <advance width="1238"/>
  <unicode hex="003F"/>
  <outline>
    <contour>
      <point x="432" y="431" type="line"/>
      <point x="551" y="431" type="line"/>
      <point x="816" y="691" type="line" smooth="yes"/>
      <point x="982" y="863"/>
      <point x="1122" y="972"/>
      <point x="1149" y="1142" type="curve" smooth="yes"/>
      <point x="1169" y="1270"/>
      <point x="1094" y="1448"/>
      <point x="794" y="1448" type="curve" smooth="yes"/>
      <point x="508" y="1448"/>
      <point x="317" y="1413"/>
      <point x="266" y="1092" type="curve" smooth="yes"/>
      <point x="265" y="1085" type="line"/>
      <point x="416" y="1085" type="line"/>
      <point x="422" y="1119" type="line" smooth="yes"/>
      <point x="443" y="1247"/>
      <point x="551" y="1322"/>
      <point x="775" y="1322" type="curve" smooth="yes"/>
      <point x="950" y="1322"/>
      <point x="1001" y="1256"/>
      <point x="981" y="1131" type="curve" smooth="yes"/>
      <point x="964" y="1016"/>
      <point x="881" y="938"/>
      <point x="785" y="828" type="curve" smooth="yes"/>
    </contour>
    <contour>
      <point x="332" y="0" type="line"/>
      <point x="509" y="0" type="line"/>
      <point x="537" y="183" type="line"/>
      <point x="360" y="183" type="line"/>
    </contour>
  </outline>
</glyph>
<glyph name="at" format="1">
  <advance width="2048"/>
  <unicode hex="0040"/>
  <outline>
    <contour>
      <point x="990" y="-127" type="curve" smooth="yes"/>
      <point x="1200" y="-127"/>
      <point x="1422" y="-77"/>
      <point x="1505" y="-28" type="curve"/>
      <point x="1475" y="76" type="line"/>
      <point x="1403" y="26"/>
      <point x="1206" y="-24"/>
      <point x="991" y="-24" type="curve" smooth="yes"/>
      <point x="661" y="-24"/>
      <point x="496" y="96"/>
      <point x="521" y="259" type="curve" smooth="yes"/>
      <point x="647" y="1053" type="line" smooth="yes"/>
      <point x="672" y="1208"/>
      <point x="861" y="1338"/>
      <point x="1170" y="1338" type="curve" smooth="yes"/>
      <point x="1586" y="1338"/>
      <point x="1582" y="1176"/>
      <point x="1552" y="991" type="curve"/>
      <point x="1550" y="991"/>
      <point x="1468" y="973"/>
      <point x="1272" y="927" type="curve" smooth="yes"/>
      <point x="858" y="836"/>
      <point x="766" y="753"/>
      <point x="741" y="596" type="curve" smooth="yes"/>
      <point x="720" y="451"/>
      <point x="782" y="280"/>
      <point x="1051" y="280" type="curve" smooth="yes"/>
      <point x="1303" y="280"/>
      <point x="1436" y="402"/>
      <point x="1495" y="477" type="curve"/>
      <point x="1500" y="394"/>
      <point x="1511" y="304"/>
      <point x="1669" y="304" type="curve" smooth="yes"/>
      <point x="1669" y="304" type="line"/>
      <point x="1708" y="421" type="line"/>
      <point x="1589" y="421"/>
      <point x="1591" y="450"/>
      <point x="1603" y="530" type="curve" smooth="yes"/>
      <point x="1607" y="549"/>
      <point x="1567" y="287"/>
      <point x="1685" y="1037" type="curve" smooth="yes"/>
      <point x="1690" y="1070"/>
      <point x="1843" y="1459"/>
      <point x="1217" y="1459" type="curve" smooth="yes"/>
      <point x="684" y="1459"/>
      <point x="523" y="1222"/>
      <point x="484" y="970" type="curve" smooth="yes"/>
      <point x="382" y="322" type="line" smooth="yes"/>
      <point x="356" y="158"/>
      <point x="421" y="-127"/>
    </contour>
    <contour>
      <point x="1089" y="389" type="curve" smooth="yes"/>
      <point x="954" y="389"/>
      <point x="890" y="460"/>
      <point x="912" y="600" type="curve" smooth="yes"/>
      <point x="929" y="688"/>
      <point x="984" y="738"/>
      <point x="1237" y="799" type="curve" smooth="yes"/>
      <point x="1460" y="854"/>
      <point x="1504" y="861"/>
      <point x="1533" y="874" type="curve"/>
      <point x="1491" y="609" type="line"/>
      <point x="1421" y="464"/>
      <point x="1217" y="389"/>
    </contour>
  </outline>
</glyph>
<glyph name="B" format="1">
  <advance width="1377"/>
  <unicode hex="0042"/>
  <outline>
    <contour>
      <point x="778" y="1428" type="move" name="top"/>
    </contour>
    <contour>
      <point x="108" y="0" type="line"/>
      <point x="633" y="0" type="line" smooth="yes"/>
      <point x="976" y="0"/>
      <point x="1148" y="115"/>
      <point x="1197" y="389" type="curve" smooth="yes"/>
      <point x="1225" y="567"/>
      <point x="1143" y="710"/>
      <point x="1002" y="754" type="curve"/>
      <point x="1131" y="805"/>
      <point x="1201" y="912"/>
      <point x="1224" y="1026" type="curve" smooth="yes"/>
      <point x="1262" y="1270"/>
      <point x="1227" y="1428"/>
      <point x="833" y="1428" type="curve" smooth="yes"/>
      <point x="335" y="1428" type="line"/>
    </contour>
    <contour>
      <point x="271" y="114" type="line"/>
      <point x="364" y="692" type="line"/>
      <point x="813" y="692" type="line" smooth="yes"/>
      <point x="1033" y="692"/>
      <point x="1082" y="543"/>
      <point x="1062" y="420" type="curve" smooth="yes"/>
      <point x="1022" y="165"/>
      <point x="880" y="114"/>
      <point x="660" y="114" type="curve" smooth="yes"/>
    </contour>
    <contour>
      <point x="380" y="804" type="line"/>
      <point x="461" y="1308" type="line"/>
      <point x="776" y="1308" type="line" smooth="yes"/>
      <point x="1045" y="1308"/>
      <point x="1120" y="1266"/>
      <point x="1082" y="1024" type="curve" smooth="yes"/>
      <point x="1063" y="896"/>
      <point x="977" y="804"/>
      <point x="789" y="804" type="curve" smooth="yes"/>
    </contour>
  </outline>
</glyph>
<glyph name="P" format="1">
  <advance width="1277"/>
  <unicode hex="0050"/>
  <outline>
    <contour>
      <point x="823" y="1428" type="move" name="top"/>
    </contour>
    <contour>
      <point x="108" y="0" type="line"/>
      <point x="253" y="0" type="line"/>
      <point x="339" y="541" type="line"/>
      <point x="784" y="541" type="line" smooth="yes"/>
      <point x="946" y="541"/>
      <point x="1142" y="634"/>
      <point x="1196" y="983" type="curve" smooth="yes"/>
      <point x="1249" y="1310"/>
      <point x="1106" y="1428"/>
      <point x="913" y="1428" type="curve" smooth="yes"/>
      <point x="335" y="1428" type="line"/>
    </contour>
    <contour>
      <point x="358" y="656" type="line"/>
      <point x="461" y="1310" type="line"/>
      <point x="886" y="1310" type="line" smooth="yes"/>
      <point x="1092" y="1310"/>
      <point x="1060" y="1102"/>
      <point x="1037" y="969" type="curve" smooth="yes"/>
      <point x="1017" y="837"/>
      <point x="971" y="656"/>
      <point x="781" y="656" type="curve" smooth="yes"/>
    </contour>
  </outline>
</glyph>
<glyph name="grave" format="1">
  <advance width="652"/>
  <unicode hex="0060"/>
  <outline>
    <contour>
      <point x="251" y="1052" type="move" name="_top"/>
    </contour>
    <contour>
      <point x="25" y="1586" type="line"/>
      <point x="200" y="1196" type="line"/>
      <point x="315" y="1196" type="line"/>
      <point x="224" y="1586" type="line"/>
    </contour>
  </outline>
</glyph>
<glyph name="a" format="1">
  <advance width="1171"/>
  <unicode hex="0061"/>
  <outline>
    <contour>
      <point x="661" y="1052" type="move" name="top"/>
    </contour>
    <contour>
      <point x="1004" y="16" type="move" name="ogonek"/>
    </contour>
    <contour>
      <point x="381" y="-21" type="curve" smooth="yes"/>
      <point x="599" y="-21"/>
      <point x="717" y="104"/>
      <point x="762" y="162" type="curve"/>
      <point x="777" y="54"/>
      <point x="810" y="-8"/>
      <point x="940" y="-8" type="curve" smooth="yes"/>
      <point x="945" y="-8" type="line"/>
      <point x="992" y="104" type="line"/>
      <point x="905" y="104"/>
      <point x="885" y="124"/>
      <point x="905" y="244" type="curve" smooth="yes"/>
      <point x="978" y="712" type="line" smooth="yes"/>
      <point x="1012" y="928"/>
      <point x="945" y="1070"/>
      <point x="690" y="1070" type="curve" smooth="yes"/>
      <point x="421" y="1070"/>
      <point x="268" y="1003"/>
      <point x="235" y="793" type="curve" smooth="yes"/>
      <point x="225" y="736" type="line"/>
      <point x="362" y="736" type="line"/>
      <point x="369" y="786" type="line" smooth="yes"/>
      <point x="383" y="872"/>
      <point x="406" y="953"/>
      <point x="665" y="953" type="curve" smooth="yes"/>
      <point x="862" y="953"/>
      <point x="861" y="857"/>
      <point x="847" y="771" type="curve"/>
      <point x="837" y="707"/>
      <point x="831" y="675"/>
      <point x="795" y="663" type="curve" smooth="yes"/>
      <point x="547" y="576" type="line" smooth="yes"/>
      <point x="212" y="459"/>
      <point x="135" y="402"/>
      <point x="117" y="238" type="curve" smooth="yes"/>
      <point x="103" y="88"/>
      <point x="144" y="-21"/>
    </contour>
    <contour>
      <point x="415" y="92" type="curve" smooth="yes"/>
      <point x="245" y="92"/>
      <point x="237" y="134"/>
      <point x="250" y="252" type="curve" smooth="yes"/>
      <point x="263" y="363"/>
      <point x="341" y="402"/>
      <point x="548" y="476" type="curve" smooth="yes"/>
      <point x="816" y="571" type="line"/>
      <point x="773" y="302" type="line"/>
      <point x="740" y="194"/>
      <point x="557" y="92"/>
    </contour>
  </outline>
</glyph>
<glyph name="c" format="1">
  <advance width="1075"/>
  <unicode hex="0063"/>
  <outline>
    <contour>
      <point x="667" y="1052" type="move" name="top"/>
    </contour>
    <contour>
      <point x="456" y="0" type="move" name="bot"/>
    </contour>
    <contour>
      <point x="487" y="-21" type="curve" smooth="yes"/>
      <point x="741" y="-21"/>
      <point x="865" y="59"/>
      <point x="927" y="268" type="curve"/>
      <point x="801" y="268" type="line"/>
      <point x="756" y="122"/>
      <point x="712" y="94"/>
      <point x="502" y="94" type="curve" smooth="yes"/>
      <point x="333" y="94"/>
      <point x="232" y="157"/>
      <point x="260" y="332" type="curve" smooth="yes"/>
      <point x="324" y="735" type="line" smooth="yes"/>
      <point x="349" y="894"/>
      <point x="447" y="953"/>
      <point x="636" y="953" type="curve" smooth="yes"/>
      <point x="832" y="953"/>
      <point x="899" y="917"/>
      <point x="869" y="724" type="curve"/>
      <point x="1004" y="739" type="line"/>
      <point x="1048" y="1010"/>
      <point x="884" y="1070"/>
      <point x="653" y="1070" type="curve" smooth="yes"/>
      <point x="401" y="1070"/>
      <point x="217" y="934"/>
      <point x="188" y="743" type="curve" smooth="yes"/>
      <point x="126" y="354" type="line" smooth="yes"/>
      <point x="95" y="153"/>
      <point x="202" y="-21"/>
    </contour>
  </outline>
</glyph>
<glyph name="m" format="1">
  <advance width="1829"/>
  <unicode hex="006D"/>
  <outline>
    <contour>
      <point x="1035" y="1052" type="move" name="top"/>
    </contour>
    <contour>
      <point x="111" y="0" type="line"/>
      <point x="249" y="0" type="line"/>
      <point x="371" y="765" type="line" smooth="yes"/>
      <point x="386" y="865"/>
      <point x="441" y="959"/>
      <point x="677" y="959" type="curve" smooth="yes"/>
      <point x="835" y="959"/>
      <point x="912" y="893"/>
      <point x="896" y="792" type="curve" smooth="yes"/>
      <point x="770" y="0" type="line"/>
      <point x="908" y="0" type="line"/>
      <point x="1028" y="758" type="line"/>
      <point x="1040" y="864"/>
      <point x="1097" y="959"/>
      <point x="1334" y="959" type="curve" smooth="yes"/>
      <point x="1493" y="959"/>
      <point x="1564" y="893"/>
      <point x="1547" y="792" type="curve" smooth="yes"/>
      <point x="1421" y="0" type="line"/>
      <point x="1559" y="0" type="line"/>
      <point x="1679" y="756" type="line" smooth="yes"/>
      <point x="1704" y="916"/>
      <point x="1672" y="1070"/>
      <point x="1378" y="1070" type="curve" smooth="yes"/>
      <point x="1233" y="1070"/>
      <point x="1131" y="1024"/>
      <point x="1014" y="927" type="curve"/>
      <point x="979" y="1005"/>
      <point x="896" y="1070"/>
      <point x="716" y="1070" type="curve" smooth="yes"/>
      <point x="577" y="1070"/>
      <point x="494" y="1040"/>
      <point x="399" y="944" type="curve"/>
      <point x="416" y="1052" type="line"/>
      <point x="278" y="1052" type="line"/>
    </contour>
  </outline>
</glyph>
<glyph name="n" format="1">
  <advance width="1195"/>
  <unicode hex="006E"/>
  <outline>
    <contour>
      <point x="768" y="1052" type="move" name="top"/>
    </contour>
    <contour>
      <point x="497" y="0" type="move" name="bot"/>
    </contour>
    <contour>
      <point x="111" y="0" type="line"/>
      <point x="249" y="0" type="line"/>
      <point x="371" y="767" type="line" smooth="yes"/>
      <point x="387" y="867"/>
      <point x="467" y="961"/>
      <point x="702" y="961" type="curve" smooth="yes"/>
      <point x="861" y="961"/>
      <point x="934" y="897"/>
      <point x="917" y="797" type="curve" smooth="yes"/>
      <point x="791" y="0" type="line"/>
      <point x="929" y="0" type="line"/>
      <point x="1051" y="770" type="line" smooth="yes"/>
      <point x="1076" y="930"/>
      <point x="1001" y="1074"/>
      <point x="707" y="1069" type="curve" smooth="yes"/>
      <point x="591" y="1064"/>
      <point x="500" y="1047"/>
      <point x="399" y="944" type="curve"/>
      <point x="416" y="1052" type="line"/>
      <point x="278" y="1052" type="line"/>
    </contour>
  </outline>
</glyph>
<glyph name="o" format="1">
  <advance width="1151"/>
  <unicode hex="006F"/>
  <outline>
    <contour>
      <point x="655" y="1052" type="move" name="top"/>
    </contour>
    <contour>
      <point x="529" y="0" type="move" name="ogonek"/>
    </contour>
    <contour>
      <point x="502" y="0" type="move" name="bot"/>
    </contour>
    <contour>
      <point x="509" y="96" type="curve" smooth="yes"/>
      <point x="344" y="96"/>
      <point x="231" y="146"/>
      <point x="254" y="291" type="curve" smooth="yes"/>
      <point x="327" y="757" type="line" smooth="yes"/>
      <point x="350" y="901"/>
      <point x="473" y="953"/>
      <point x="643" y="953" type="curve" smooth="yes"/>
      <point x="804" y="953"/>
      <point x="920" y="901"/>
      <point x="897" y="757" type="curve" smooth="yes"/>
      <point x="824" y="291" type="line" smooth="yes"/>
      <point x="801" y="146"/>
      <point x="674" y="96"/>
    </contour>
    <contour>
      <point x="490" y="-21" type="curve" smooth="yes"/>
      <point x="786" y="-21"/>
      <point x="935" y="123"/>
      <point x="964" y="309" type="curve" smooth="yes"/>
      <point x="1033" y="738" type="line" smooth="yes"/>
      <point x="1062" y="921"/>
      <point x="991" y="1070"/>
      <point x="661" y="1070" type="curve" smooth="yes"/>
      <point x="328" y="1070"/>
      <point x="216" y="921"/>
      <point x="187" y="738" type="curve" smooth="yes"/>
      <point x="119" y="309" type="line" smooth="yes"/>
      <point x="89" y="124"/>
      <point x="183" y="-21"/>
    </contour>
  </outline>
</glyph>
<glyph name="q" format="1">
  <advance width="1194"/>
  <unicode hex="0071"/>
  <outline>
    <contour>
      <point x="742" y="-407" type="line"/>
      <point x="880" y="-407" type="line"/>
      <point x="1112" y="1052" type="line"/>
      <point x="933" y="1052" type="line"/>
      <point x="928" y="957" type="line"/>
      <point x="925" y="1006"/>
      <point x="793" y="1070"/>
      <point x="688" y="1070" type="curve" smooth="yes"/>
      <point x="403" y="1070"/>
      <point x="257" y="930"/>
      <point x="223" y="715" type="curve" smooth="yes"/>
      <point x="160" y="312" type="line" smooth="yes"/>
      <point x="125" y="94"/>
      <point x="286" y="-21"/>
      <point x="538" y="-21" type="curve" smooth="yes"/>
      <point x="606" y="-21"/>
      <point x="741" y="-2"/>
      <point x="815" y="55" type="curve"/>
    </contour>
    <contour>
      <point x="546" y="96" type="curve" smooth="yes"/>
      <point x="397" y="96"/>
      <point x="269" y="131"/>
      <point x="291" y="270" type="curve" smooth="yes"/>
      <point x="365" y="743" type="line" smooth="yes"/>
      <point x="388" y="886"/>
      <point x="519" y="953"/>
      <point x="687" y="953" type="curve" smooth="yes"/>
      <point x="896" y="953"/>
      <point x="958" y="864"/>
      <point x="933" y="793" type="curve"/>
      <point x="838" y="190" type="line"/>
      <point x="818" y="160"/>
      <point x="701" y="96"/>
    </contour>
  </outline>
</glyph>
<glyph name="t" format="1">
  <advance width="815"/>
  <unicode hex="0074"/>
  <outline>
    <contour>
      <point x="556" y="1203" type="move" name="top"/>
    </contour>
    <contour>
      <point x="215" y="1052" type="move" name="caron.alt"/>
    </contour>
    <contour>
      <point x="341" y="37" type="move" name="bot"/>
    </contour>
    <contour>
      <point x="362" y="583" type="move" name="mid"/>
    </contour>
    <contour>
      <point x="584" y="-6" type="curve" smooth="yes"/>
      <point x="570" y="-6" type="line"/>
      <point x="617" y="126" type="line"/>
      <point x="621" y="126" type="line" smooth="yes"/>
      <point x="442" y="126"/>
      <point x="331" y="144"/>
      <point x="355" y="288" type="curve" smooth="yes"/>
      <point x="456" y="928" type="line"/>
      <point x="728" y="928" type="line"/>
      <point x="748" y="1052" type="line"/>
      <point x="476" y="1052" type="line"/>
      <point x="527" y="1369" type="line"/>
      <point x="417" y="1369" type="line"/>
      <point x="345" y="1052" type="line"/>
      <point x="157" y="1052" type="line"/>
      <point x="137" y="928" type="line"/>
      <point x="318" y="928" type="line"/>
      <point x="216" y="280" type="line" smooth="yes"/>
      <point x="183" y="73"/>
      <point x="314" y="-6"/>
    </contour>
  </outline>
</glyph>
<glyph name="u" format="1">
  <advance width="1194"/>
  <unicode hex="0075"/>
  <outline>
    <contour>
      <point x="695" y="1052" type="move" name="top"/>
    </contour>
    <contour>
      <point x="868" y="0" type="move" name="ogonek"/>
    </contour>
    <contour>
      <point x="480" y="-21" type="curve" smooth="yes"/>
      <point x="638" y="-17"/>
      <point x="720" y="43"/>
      <point x="795" y="142" type="curve"/>
      <point x="800" y="0" type="line"/>
      <point x="916" y="0" type="line"/>
      <point x="1082" y="1052" type="line"/>
      <point x="945" y="1052" type="line"/>
      <point x="823" y="284" type="line" smooth="yes"/>
      <point x="812" y="214"/>
      <point x="719" y="86"/>
      <point x="484" y="86" type="curve" smooth="yes"/>
      <point x="324" y="86"/>
      <point x="263" y="161"/>
      <point x="279" y="261" type="curve" smooth="yes"/>
      <point x="404" y="1052" type="line"/>
      <point x="267" y="1052" type="line"/>
      <point x="146" y="289" type="line" smooth="yes"/>
      <point x="120" y="129"/>
      <point x="185" y="-27"/>
    </contour>
  </outline>
</glyph>
<glyph name="y" format="1">
  <advance width="1117"/>
  <unicode hex="0079"/>
  <outline>
    <contour>
      <point x="701" y="1052" type="move" name="top"/>
    </contour>
    <contour>
      <point x="103" y="-371" type="line"/>
      <point x="395" y="-389"/>
      <point x="519" y="-235"/>
      <point x="628" y="-12" type="curve" smooth="yes"/>
      <point x="1158" y="1052" type="line"/>
      <point x="1016" y="1052" type="line"/>
      <point x="570" y="134" type="line"/>
      <point x="365" y="1052" type="line"/>
      <point x="204" y="1052" type="line"/>
      <point x="493" y="-15" type="line"/>
      <point x="419" y="-184"/>
      <point x="269" y="-271"/>
      <point x="132" y="-258" type="curve"/>
    </contour>
  </outline>
</glyph>
<glyph name="z" format="1">
  <advance width="925"/>
  <unicode hex="007A"/>
  <outline>
    <contour>
      <point x="582" y="1052" type="move" name="top"/>
    </contour>
    <contour>
      <point x="451" y="0" type="move" name="bot"/>
    </contour>
    <contour>
      <point x="62" y="0" type="line"/>
      <point x="749" y="0" type="line"/>
      <point x="764" y="97" type="line"/>
      <point x="217" y="97" type="line"/>
      <point x="891" y="950" type="line"/>
      <point x="907" y="1052" type="line"/>
      <point x="255" y="1052" type="line"/>
      <point x="238" y="946" type="line"/>
      <point x="742" y="946" type="line"/>
      <point x="78" y="101" type="line"/>
    </contour>
  </outline>
</glyph>
<glyph name="braceright" format="1">
  <advance width="929"/>
  <unicode hex="007D"/>
  <outline>
    <contour>
      <point x="-39" y="-254" type="curve"/>
      <point x="497" y="-254"/>
      <point x="479" y="-61"/>
      <point x="523" y="212" type="curve" smooth="yes"/>
      <point x="526" y="225" type="line" smooth="yes"/>
      <point x="588" y="630"/>
      <point x="667" y="561"/>
      <point x="829" y="561" type="curve"/>
      <point x="844" y="660" type="line"/>
      <point x="683" y="660"/>
      <point x="583" y="582"/>
      <point x="645" y="986" type="curve" smooth="yes"/>
      <point x="647" y="990" type="line" smooth="yes"/>
      <point x="686" y="1237"/>
      <point x="782" y="1476"/>
      <point x="236" y="1476" type="curve"/>
      <point x="236" y="1476"/>
      <point x="215" y="1339"/>
      <point x="214" y="1339" type="curve" smooth="yes"/>
      <point x="560" y="1339"/>
      <point x="551" y="1266"/>
      <point x="505" y="976" type="curve" smooth="yes"/>
      <point x="501" y="955" type="line" smooth="yes"/>
      <point x="476" y="790"/>
      <point x="472" y="643"/>
      <point x="516" y="605" type="curve"/>
      <point x="463" y="573"/>
      <point x="415" y="409"/>
      <point x="391" y="254" type="curve" smooth="yes"/>
      <point x="385" y="225" type="line" smooth="yes"/>
      <point x="341" y="-57"/>
      <point x="332" y="-117"/>
      <point x="-17" y="-117" type="curve" smooth="yes"/>
      <point x="-16" y="-117"/>
      <point x="-39" y="-254"/>
    </contour>
  </outline>
</glyph>
<glyph name="cent" format="1">
  <advance width="1112"/>
  <unicode hex="00A2"/>
  <outline>
    <contour>
      <point x="618" y="1017" type="line"/>
      <point x="727" y="1017" type="line"/>
      <point x="766" y="1269" type="line"/>
      <point x="657" y="1269" type="line"/>
    </contour>
    <contour>
      <point x="425" y="-200" type="line"/>
      <point x="534" y="-200" type="line"/>
      <point x="573" y="52" type="line"/>
      <point x="464" y="52" type="line"/>
    </contour>
    <component base="c"/>
  </outline>
</glyph>
<glyph name="currency" format="1">
  <advance width="1163"/>
  <unicode hex="00A4"/>
  <outline>
    <contour>
      <point x="508" y="347" type="curve" smooth="yes"/>
      <point x="605" y="347"/>
      <point x="712" y="396"/>
      <point x="784" y="487" type="curve"/>
      <point x="946" y="371" type="line"/>
      <point x="1011" y="452" type="line"/>
      <point x="839" y="576" type="line"/>
      <point x="852" y="606"/>
      <point x="861" y="637"/>
      <point x="865" y="669" type="curve" smooth="yes"/>
      <point x="876" y="734"/>
      <point x="865" y="793"/>
      <point x="846" y="844" type="curve"/>
      <point x="1083" y="997" type="line"/>
      <point x="1044" y="1080" type="line"/>
      <point x="794" y="918" type="line"/>
      <point x="746" y="969"/>
      <point x="678" y="990"/>
      <point x="611" y="990" type="curve" smooth="yes"/>
      <point x="544" y="990"/>
      <point x="470" y="970"/>
      <point x="406" y="918" type="curve"/>
      <point x="220" y="1057" type="line"/>
      <point x="152" y="974" type="line"/>
      <point x="333" y="844" type="line"/>
      <point x="293" y="794"/>
      <point x="265" y="734"/>
      <point x="254" y="669" type="curve" smooth="yes"/>
      <point x="249" y="625"/>
      <point x="249" y="582"/>
      <point x="258" y="543" type="curve"/>
      <point x="82" y="429" type="line"/>
      <point x="120" y="346" type="line"/>
      <point x="292" y="461" type="line"/>
      <point x="342" y="385"/>
      <point x="421" y="347"/>
    </contour>
    <contour>
      <point x="518" y="394" type="curve" smooth="yes"/>
      <point x="390" y="394"/>
      <point x="291" y="515"/>
      <point x="317" y="670" type="curve" smooth="yes"/>
      <point x="341" y="827"/>
      <point x="478" y="947"/>
      <point x="605" y="947" type="curve" smooth="yes"/>
      <point x="734" y="947"/>
      <point x="833" y="827"/>
      <point x="809" y="670" type="curve" smooth="yes"/>
      <point x="783" y="515"/>
      <point x="647" y="394"/>
    </contour>
  </outline>
</glyph>
<glyph name="copyright" format="1">
  <advance width="1789"/>
  <unicode hex="00A9"/>
  <outline>
    <contour>
      <point x="836" y="287" type="curve" smooth="yes"/>
      <point x="1112" y="287"/>
      <point x="1183" y="422"/>
      <point x="1211" y="598" type="curve" smooth="yes"/>
      <point x="1216" y="632" type="line"/>
      <point x="1100" y="632" type="line"/>
      <point x="1090" y="571" type="line" smooth="yes"/>
      <point x="1066" y="419"/>
      <point x="1003" y="376"/>
      <point x="850" y="376" type="curve" smooth="yes"/>
      <point x="698" y="376"/>
      <point x="625" y="419"/>
      <point x="649" y="571" type="curve" smooth="yes"/>
      <point x="700" y="890" type="line" smooth="yes"/>
      <point x="724" y="1042"/>
      <point x="812" y="1091"/>
      <point x="963" y="1091" type="curve" smooth="yes"/>
      <point x="1115" y="1091"/>
      <point x="1165" y="1042"/>
      <point x="1141" y="890" type="curve" smooth="yes"/>
      <point x="1131" y="826" type="line"/>
      <point x="1248" y="836" type="line"/>
      <point x="1252" y="861" type="line" smooth="yes"/>
      <point x="1281" y="1043"/>
      <point x="1254" y="1182"/>
      <point x="977" y="1182" type="curve" smooth="yes"/>
      <point x="689" y="1182"/>
      <point x="605" y="1050"/>
      <point x="576" y="868" type="curve" smooth="yes"/>
      <point x="532" y="590" type="line" smooth="yes"/>
      <point x="504" y="411"/>
      <point x="549" y="287"/>
    </contour>
    <contour>
      <point x="795" y="82" type="curve" smooth="yes"/>
      <point x="431" y="82"/>
      <point x="209" y="357"/>
      <point x="267" y="722" type="curve" smooth="yes"/>
      <point x="325" y="1086"/>
      <point x="633" y="1361"/>
      <point x="997" y="1361" type="curve" smooth="yes"/>
      <point x="1363" y="1361"/>
      <point x="1582" y="1086"/>
      <point x="1524" y="722" type="curve" smooth="yes"/>
      <point x="1466" y="357"/>
      <point x="1161" y="82"/>
    </contour>
    <contour>
      <point x="778" y="-14" type="curve" smooth="yes"/>
      <point x="1194" y="-14"/>
      <point x="1564" y="303"/>
      <point x="1630" y="722" type="curve" smooth="yes"/>
      <point x="1696" y="1139"/>
      <point x="1426" y="1456"/>
      <point x="1010" y="1456" type="curve" smooth="yes"/>
      <point x="597" y="1456"/>
      <point x="224" y="1139"/>
      <point x="158" y="722" type="curve" smooth="yes"/>
      <point x="92" y="303"/>
      <point x="365" y="-14"/>
    </contour>
  </outline>
</glyph>
<glyph name="macron" format="1">
  <advance width="514"/>
  <unicode hex="00AF"/>
  <outline>
    <contour>
      <point x="196" y="1052" type="move" name="_top"/>
    </contour>
    <contour>
      <point x="256" y="1433" type="move" name="_mid"/>
    </contour>
    <contour>
      <point x="3" y="1363" type="line"/>
      <point x="487" y="1363" type="line"/>
      <point x="511" y="1504" type="line"/>
      <point x="27" y="1504" type="line"/>
    </contour>
  </outline>
</glyph>
<glyph name="twosuperior" format="1">
  <advance width="1077"/>
  <unicode hex="00B2"/>
  <outline>
    <contour>
      <point x="209" y="736" type="line"/>
      <point x="754" y="736" type="line"/>
      <point x="766" y="823" type="line"/>
      <point x="354" y="823" type="line"/>
      <point x="574" y="976" type="line" smooth="yes"/>
      <point x="713" y="1091"/>
      <point x="812" y="1166"/>
      <point x="838" y="1332" type="curve" smooth="yes"/>
      <point x="864" y="1500"/>
      <point x="758" y="1585"/>
      <point x="610" y="1585" type="curve" smooth="yes"/>
      <point x="466" y="1585"/>
      <point x="294" y="1505"/>
      <point x="262" y="1278" type="curve"/>
      <point x="370" y="1278" type="line"/>
      <point x="396" y="1463"/>
      <point x="485" y="1505"/>
      <point x="604" y="1505" type="curve" smooth="yes"/>
      <point x="699" y="1505"/>
      <point x="759" y="1458"/>
      <point x="741" y="1334" type="curve" smooth="yes"/>
      <point x="720" y="1208"/>
      <point x="662" y="1158"/>
      <point x="532" y="1053" type="curve" smooth="yes"/>
      <point x="220" y="830" type="line"/>
    </contour>
  </outline>
</glyph>
<glyph name="periodcentered" format="1">
  <advance width="867"/>
  <unicode hex="00B7"/>
  <outline>
    <contour>
      <point x="164" y="601" type="move" name="_mid"/>
    </contour>
    <contour>
      <point x="514" y="527" type="line"/>
      <point x="693" y="527" type="line"/>
      <point x="721" y="710" type="line"/>
      <point x="542" y="710" type="line"/>
    </contour>
  </outline>
</glyph>
<glyph name="cedilla" format="1">
  <advance width="512"/>
  <unicode hex="00B8"/>
  <outline>
    <contour>
      <point x="249" y="0" type="move" name="_bot"/>
    </contour>
    <contour>
      <point x="174" y="-487" type="curve" smooth="yes"/>
      <point x="340" y="-487"/>
      <point x="437" y="-398"/>
      <point x="450" y="-304" type="curve" smooth="yes"/>
      <point x="466" y="-216"/>
      <point x="387" y="-122"/>
      <point x="246" y="-96" type="curve"/>
      <point x="252" y="-6" type="line"/>
      <point x="217" y="-6" type="line"/>
      <point x="193" y="-156" type="line"/>
      <point x="295" y="-159"/>
      <point x="350" y="-231"/>
      <point x="341" y="-297" type="curve" smooth="yes"/>
      <point x="332" y="-349"/>
      <point x="280" y="-403"/>
      <point x="170" y="-403" type="curve" smooth="yes"/>
      <point x="148" y="-403"/>
      <point x="122" y="-401"/>
      <point x="96" y="-396" type="curve"/>
      <point x="84" y="-480" type="line"/>
      <point x="116" y="-485"/>
      <point x="147" y="-487"/>
    </contour>
  </outline>
</glyph>
<glyph name="onequarter" format="1">
  <advance width="1815"/>
  <unicode hex="00BC"/>
  <outline>
    <contour>
      <point x="1342" y="0" type="line"/>
      <point x="1428" y="0" type="line"/>
      <point x="1461" y="205" type="line"/>
      <point x="1590" y="205" type="line"/>
      <point x="1597" y="253" type="line"/>
      <point x="1467" y="253" type="line"/>
      <point x="1504" y="484" type="line"/>
      <point x="1418" y="484" type="line"/>
      <point x="1382" y="253" type="line"/>
      <point x="1110" y="253" type="line"/>
      <point x="1589" y="783" type="line"/>
      <point x="1478" y="783" type="line"/>
      <point x="989" y="257" type="line"/>
      <point x="981" y="205" type="line"/>
      <point x="1375" y="205" type="line"/>
    </contour>
    <contour>
      <point x="189" y="793" type="line"/>
      <point x="772" y="793" type="line"/>
      <point x="784" y="867" type="line"/>
      <point x="562" y="867" type="line"/>
      <point x="666" y="1522" type="line"/>
      <point x="582" y="1522" type="line"/>
      <point x="314" y="1501" type="line"/>
      <point x="309" y="1421" type="line"/>
      <point x="571" y="1440" type="line"/>
      <point x="479" y="867" type="line"/>
      <point x="202" y="867" type="line"/>
    </contour>
    <contour>
      <point x="471" y="0" type="line"/>
      <point x="578" y="0" type="line"/>
      <point x="1501" y="1411" type="line"/>
      <point x="1404" y="1411" type="line"/>
    </contour>
  </outline>
</glyph>
<glyph name="onehalf" format="1">
  <advance width="1728"/>
  <unicode hex="00BD"/>
  <outline>
    <contour>
      <point x="1041" y="4" type="line"/>
      <point x="1472" y="4" type="line"/>
      <point x="1482" y="66" type="line"/>
      <point x="1151" y="66" type="line"/>
      <point x="1391" y="311" type="line" smooth="yes"/>
      <point x="1463" y="389"/>
      <point x="1525" y="425"/>
      <point x="1545" y="540" type="curve" smooth="yes"/>
      <point x="1561" y="649"/>
      <point x="1493" y="745"/>
      <point x="1366" y="745" type="curve" smooth="yes"/>
      <point x="1266" y="745"/>
      <point x="1130" y="688"/>
      <point x="1107" y="544" type="curve"/>
      <point x="1164" y="544" type="line"/>
      <point x="1183" y="670"/>
      <point x="1243" y="677"/>
      <point x="1358" y="677" type="curve" smooth="yes"/>
      <point x="1460" y="677"/>
      <point x="1500" y="633"/>
      <point x="1486" y="539" type="curve"/>
      <point x="1473" y="462"/>
      <point x="1441" y="441"/>
      <point x="1345" y="350" type="curve" smooth="yes"/>
      <point x="1059" y="55" type="line"/>
    </contour>
    <contour>
      <point x="189" y="793" type="line"/>
      <point x="772" y="793" type="line"/>
      <point x="784" y="867" type="line"/>
      <point x="562" y="867" type="line"/>
      <point x="666" y="1522" type="line"/>
      <point x="582" y="1522" type="line"/>
      <point x="313" y="1501" type="line"/>
      <point x="308" y="1421" type="line"/>
      <point x="571" y="1440" type="line"/>
      <point x="479" y="867" type="line"/>
      <point x="202" y="867" type="line"/>
    </contour>
    <contour>
      <point x="453" y="0" type="line"/>
      <point x="560" y="0" type="line"/>
      <point x="1483" y="1411" type="line"/>
      <point x="1386" y="1411" type="line"/>
    </contour>
  </outline>
</glyph>
<glyph name="multiply" format="1">
  <advance width="942"/>
  <unicode hex="00D7"/>
  <outline>
    <contour>
      <point x="166" y="216" type="line"/>
      <point x="452" y="458" type="line"/>
      <point x="662" y="216" type="line"/>
      <point x="791" y="344" type="line"/>
      <point x="592" y="576" type="line"/>
      <point x="864" y="806" type="line"/>
      <point x="776" y="937" type="line"/>
      <point x="490" y="694" type="line"/>
      <point x="280" y="937" type="line"/>
      <point x="150" y="806" type="line"/>
      <point x="350" y="576" type="line"/>
      <point x="77" y="344" type="line"/>
    </contour>
  </outline>
</glyph>
<glyph name="Thorn" format="1">
  <advance width="1295"/>
  <unicode hex="00DE"/>
  <outline>
    <contour>
      <point x="96" y="0" type="line"/>
      <point x="241" y="0" type="line"/>
      <point x="292" y="316" type="line"/>
      <point x="730" y="316" type="line" smooth="yes"/>
      <point x="892" y="316"/>
      <point x="1095" y="402"/>
      <point x="1150" y="750" type="curve" smooth="yes"/>
      <point x="1202" y="1077"/>
      <point x="1045" y="1189"/>
      <point x="852" y="1189" type="curve" smooth="yes"/>
      <point x="430" y="1189" type="line"/>
      <point x="468" y="1428" type="line"/>
      <point x="323" y="1428" type="line"/>
    </contour>
    <contour>
      <point x="310" y="434" type="line"/>
      <point x="411" y="1068" type="line"/>
      <point x="827" y="1068" type="line" smooth="yes"/>
      <point x="1032" y="1068"/>
      <point x="1006" y="869"/>
      <point x="986" y="736" type="curve" smooth="yes"/>
      <point x="964" y="605"/>
      <point x="916" y="434"/>
      <point x="726" y="434" type="curve" smooth="yes"/>
    </contour>
  </outline>
</glyph>
<glyph name="germandbls" format="1">
  <advance width="1278"/>
  <unicode hex="00DF"/>
  <outline>
    <contour>
      <point x="104" y="0" type="line"/>
      <point x="218" y="0" type="line"/>
      <point x="397" y="1132" type="line" smooth="yes"/>
      <point x="430" y="1342"/>
      <point x="598" y="1340"/>
      <point x="745" y="1340" type="curve" smooth="yes"/>
      <point x="858" y="1340"/>
      <point x="986" y="1349"/>
      <point x="950" y="1124" type="curve" smooth="yes"/>
      <point x="927" y="982"/>
      <point x="858" y="923"/>
      <point x="618" y="923" type="curve"/>
      <point x="601" y="810" type="line"/>
      <point x="862" y="822"/>
      <point x="1041" y="799"/>
      <point x="997" y="523" type="curve" smooth="yes"/>
      <point x="935" y="133"/>
      <point x="654" y="167"/>
      <point x="371" y="135" type="curve"/>
      <point x="370" y="12" type="line"/>
      <point x="762" y="12"/>
      <point x="1036" y="97"/>
      <point x="1107" y="541" type="curve" smooth="yes"/>
      <point x="1168" y="929"/>
      <point x="952" y="871"/>
      <point x="944" y="913" type="curve"/>
      <point x="1020" y="934"/>
      <point x="1060" y="972"/>
      <point x="1085" y="1143" type="curve" smooth="yes"/>
      <point x="1119" y="1354"/>
      <point x="1016" y="1469"/>
      <point x="790" y="1469" type="curve" smooth="yes"/>
      <point x="572" y="1469"/>
      <point x="329" y="1432"/>
      <point x="276" y="1094" type="curve" smooth="yes"/>
    </contour>
  </outline>
</glyph>
<glyph name="eth" format="1">
  <advance width="1066"/>
  <unicode hex="00F0"/>
  <outline>
    <contour>
      <point x="405" y="-18" type="curve" smooth="yes"/>
      <point x="788" y="-18"/>
      <point x="807" y="155"/>
      <point x="831" y="308" type="curve" smooth="yes"/>
      <point x="918" y="856" type="line" smooth="yes"/>
      <point x="943" y="1011"/>
      <point x="995" y="1274"/>
      <point x="798" y="1414" type="curve"/>
      <point x="932" y="1545" type="line"/>
      <point x="861" y="1594" type="line"/>
      <point x="728" y="1461" type="line"/>
      <point x="548" y="1507"/>
      <point x="390" y="1477"/>
      <point x="332" y="1462" type="curve"/>
      <point x="286" y="1357" type="line"/>
      <point x="354" y="1368"/>
      <point x="482" y="1381"/>
      <point x="617" y="1355" type="curve"/>
      <point x="421" y="1143" type="line"/>
      <point x="494" y="1094" type="line"/>
      <point x="702" y="1316" type="line"/>
      <point x="813" y="1231"/>
      <point x="860" y="1096"/>
      <point x="815" y="905" type="curve"/>
      <point x="791" y="928"/>
      <point x="726" y="975"/>
      <point x="580" y="975" type="curve" smooth="yes"/>
      <point x="317" y="975"/>
      <point x="150" y="846"/>
      <point x="121" y="663" type="curve" smooth="yes"/>
      <point x="62" y="297" type="line" smooth="yes"/>
      <point x="34" y="118"/>
      <point x="110" y="-18"/>
    </contour>
    <contour>
      <point x="422" y="87" type="curve" smooth="yes"/>
      <point x="287" y="87"/>
      <point x="169" y="133"/>
      <point x="194" y="293" type="curve" smooth="yes"/>
      <point x="255" y="676" type="line" smooth="yes"/>
      <point x="277" y="807"/>
      <point x="397" y="857"/>
      <point x="543" y="857" type="curve" smooth="yes"/>
      <point x="603" y="857"/>
      <point x="746" y="841"/>
      <point x="792" y="811" type="curve"/>
      <point x="791" y="860"/>
      <point x="693" y="276"/>
      <point x="699" y="318" type="curve" smooth="yes"/>
      <point x="688" y="212"/>
      <point x="667" y="87"/>
    </contour>
  </outline>
</glyph>
<glyph name="Lslash" format="1">
  <advance width="1129"/>
  <unicode hex="0141"/>
  <outline>
    <contour>
      <point x="58" y="650" type="line"/>
      <point x="904" y="1081" type="line"/>
      <point x="915" y="1145" type="line"/>
      <point x="69" y="714" type="line"/>
    </contour>
    <component base="L"/>
  </outline>
</glyph>
<glyph name="eng" format="1">
  <advance width="1209"/>
  <unicode hex="014B"/>
  <outline>
    <contour>
      <point x="586" y="-287" type="line"/>
      <point x="874" y="-287"/>
      <point x="935" y="-138"/>
      <point x="995" y="243" type="curve" smooth="yes"/>
      <point x="1076" y="756" type="line" smooth="yes"/>
      <point x="1102" y="916"/>
      <point x="1049" y="1070"/>
      <point x="755" y="1070" type="curve" smooth="yes"/>
      <point x="598" y="1070"/>
      <point x="510" y="1028"/>
      <point x="429" y="962" type="curve"/>
      <point x="443" y="1052" type="line"/>
      <point x="306" y="1052" type="line"/>
      <point x="139" y="0" type="line"/>
      <point x="276" y="0" type="line"/>
      <point x="396" y="753" type="line" smooth="yes"/>
      <point x="411" y="853"/>
      <point x="493" y="953"/>
      <point x="728" y="953" type="curve" smooth="yes"/>
      <point x="887" y="953"/>
      <point x="961" y="889"/>
      <point x="944" y="789" type="curve" smooth="yes"/>
      <point x="857" y="236" type="line" smooth="yes"/>
      <point x="808" y="-76"/>
      <point x="825" y="-188"/>
      <point x="577" y="-175" type="curve"/>
    </contour>
  </outline>
</glyph>
<glyph name="OE" format="1">
  <advance width="1511"/>
  <unicode hex="0152"/>
  <outline>
    <contour>
      <point x="696" y="0" type="curve" smooth="yes"/>
      <point x="1220" y="0" type="line"/>
      <point x="1241" y="126" type="line"/>
      <point x="775" y="126" type="line"/>
      <point x="861" y="663" type="line"/>
      <point x="1266" y="663" type="line"/>
      <point x="1284" y="788" type="line"/>
      <point x="879" y="788" type="line"/>
      <point x="961" y="1301" type="line"/>
      <point x="1414" y="1301" type="line"/>
      <point x="1435" y="1428" type="line"/>
      <point x="924" y="1428" type="line" smooth="yes"/>
      <point x="419" y="1429"/>
      <point x="275" y="1210"/>
      <point x="225" y="894" type="curve" smooth="yes"/>
      <point x="165" y="512" type="line" smooth="yes"/>
      <point x="117" y="208"/>
      <point x="194" y="0"/>
    </contour>
    <contour>
      <point x="702" y="125" type="line"/>
      <point x="436" y="125"/>
      <point x="273" y="180"/>
      <point x="324" y="500" type="curve" smooth="yes"/>
      <point x="390" y="915" type="line" smooth="yes"/>
      <point x="440" y="1234"/>
      <point x="624" y="1305"/>
      <point x="889" y="1305" type="curve" smooth="yes"/>
      <point x="802" y="1305" type="line"/>
      <point x="615" y="125" type="line"/>
    </contour>
  </outline>
</glyph>
<glyph name="florin" format="1">
  <advance width="810"/>
  <unicode hex="0192"/>
  <outline>
    <contour>
      <point x="53" y="-181" type="curve" smooth="yes"/>
      <point x="238" y="-181"/>
      <point x="347" y="-117"/>
      <point x="379" y="85" type="curve" smooth="yes"/>
      <point x="468" y="657" type="line"/>
      <point x="572" y="657" type="line"/>
      <point x="594" y="796" type="line"/>
      <point x="491" y="796" type="line"/>
      <point x="549" y="1159" type="line" smooth="yes"/>
      <point x="562" y="1252"/>
      <point x="602" y="1328"/>
      <point x="764" y="1328" type="curve" smooth="yes"/>
      <point x="772" y="1328"/>
      <point x="773" y="1331"/>
      <point x="776" y="1330" type="curve"/>
      <point x="794" y="1440" type="line"/>
      <point x="766" y="1443"/>
      <point x="729" y="1445"/>
      <point x="702" y="1445" type="curve" smooth="yes"/>
      <point x="507" y="1445"/>
      <point x="405" y="1380"/>
      <point x="367" y="1139" type="curve" smooth="yes"/>
      <point x="313" y="796" type="line"/>
      <point x="214" y="796" type="line"/>
      <point x="192" y="657" type="line"/>
      <point x="291" y="657" type="line"/>
      <point x="196" y="56" type="line" smooth="yes"/>
      <point x="182" y="-29"/>
      <point x="131" y="-64"/>
      <point x="8" y="-64" type="curve" smooth="yes"/>
      <point x="-7" y="-64"/>
      <point x="-17" y="-66"/>
      <point x="-29" y="-65" type="curve"/>
      <point x="-47" y="-175" type="line"/>
      <point x="-17" y="-179"/>
      <point x="23" y="-181"/>
    </contour>
  </outline>
</glyph>
<glyph name="circumflex" format="1">
  <advance width="512"/>
  <unicode hex="02C6"/>
  <outline>
    <contour>
      <point x="186" y="1052" type="move" name="_top"/>
    </contour>
    <contour>
      <point x="-26" y="1330" type="line"/>
      <point x="124" y="1330" type="line"/>
      <point x="263" y="1474" type="line"/>
      <point x="347" y="1330" type="line"/>
      <point x="494" y="1330" type="line"/>
      <point x="329" y="1576" type="line"/>
      <point x="224" y="1576" type="line"/>
    </contour>
  </outline>
</glyph>
<glyph name="caron" format="1">
  <advance width="512"/>
  <unicode hex="02C7"/>
  <outline>
    <contour>
      <point x="186" y="1052" type="move" name="_top"/>
    </contour>
    <contour>
      <point x="290" y="1330" type="line"/>
      <point x="532" y="1576" type="line"/>
      <point x="386" y="1576" type="line"/>
      <point x="255" y="1432" type="line"/>
      <point x="163" y="1576" type="line"/>
      <point x="13" y="1576" type="line"/>
      <point x="185" y="1330" type="line"/>
    </contour>
  </outline>
</glyph>
<glyph name="breve" format="1">
  <advance width="512"/>
  <unicode hex="02D8"/>
  <outline>
    <contour>
      <point x="206" y="1052" type="move" name="_top"/>
    </contour>
    <contour>
      <point x="241" y="1340" type="curve" smooth="yes"/>
      <point x="387" y="1340"/>
      <point x="469" y="1460"/>
      <point x="479" y="1524" type="curve"/>
      <point x="363" y="1524" type="line"/>
      <point x="355" y="1474"/>
      <point x="304" y="1440"/>
      <point x="258" y="1440" type="curve" smooth="yes"/>
      <point x="211" y="1440"/>
      <point x="170" y="1474"/>
      <point x="178" y="1524" type="curve"/>
      <point x="63" y="1524" type="line"/>
      <point x="53" y="1460"/>
      <point x="96" y="1340"/>
    </contour>
  </outline>
</glyph>
<glyph name="dotaccent" format="1">
  <advance width="526"/>
  <unicode hex="02D9"/>
  <outline>
    <contour>
      <point x="190" y="1052" type="move" name="_top"/>
    </contour>
    <contour>
      <point x="155" y="1373" type="line"/>
      <point x="303" y="1373" type="line"/>
      <point x="330" y="1553" type="line"/>
      <point x="182" y="1553" type="line"/>
    </contour>
  </outline>
</glyph>
<glyph name="ring" format="1">
  <advance width="464"/>
  <unicode hex="02DA"/>
  <outline>
    <contour>
      <point x="190" y="1052" type="move" name="_top"/>
    </contour>
    <contour>
      <point x="215" y="1210" type="curve" smooth="yes"/>
      <point x="164" y="1210"/>
      <point x="115" y="1236"/>
      <point x="128" y="1318" type="curve" smooth="yes"/>
      <point x="142" y="1400"/>
      <point x="200" y="1424"/>
      <point x="249" y="1424" type="curve" smooth="yes"/>
      <point x="301" y="1424"/>
      <point x="349" y="1397"/>
      <point x="336" y="1316" type="curve" smooth="yes"/>
      <point x="322" y="1235"/>
      <point x="266" y="1210"/>
    </contour>
    <contour>
      <point x="208" y="1160" type="curve" smooth="yes"/>
      <point x="282" y="1160"/>
      <point x="387" y="1202"/>
      <point x="404" y="1317" type="curve" smooth="yes"/>
      <point x="422" y="1432"/>
      <point x="331" y="1475"/>
      <point x="256" y="1475" type="curve" smooth="yes"/>
      <point x="182" y="1475"/>
      <point x="77" y="1432"/>
      <point x="60" y="1317" type="curve" smooth="yes"/>
      <point x="42" y="1202"/>
      <point x="133" y="1160"/>
    </contour>
  </outline>
</glyph>
<glyph name="ogonek" format="1">
  <advance width="529"/>
  <unicode hex="02DB"/>
  <outline>
    <contour>
      <point x="391" y="0" type="move" name="_ogonek"/>
    </contour>
    <contour>
      <point x="370" y="-457" type="curve"/>
      <point x="373" y="-386" type="line"/>
      <point x="223" y="-386"/>
      <point x="220" y="-302"/>
      <point x="229" y="-245" type="curve" smooth="yes"/>
      <point x="243" y="-162"/>
      <point x="321" y="-44"/>
      <point x="412" y="11" type="curve"/>
      <point x="381" y="11" type="line"/>
      <point x="209" y="-114"/>
      <point x="148" y="-205"/>
      <point x="137" y="-273" type="curve" smooth="yes"/>
      <point x="126" y="-352"/>
      <point x="180" y="-456"/>
    </contour>
  </outline>
</glyph>
<glyph name="uni030F" format="1">
  <advance width="1024"/>
  <unicode hex="030F"/>
  <outline>
    <contour>
      <point x="524" y="1052" type="move" name="_top"/>
    </contour>
    <contour>
      <point x="717" y="1375" type="line"/>
      <point x="832" y="1375" type="line"/>
      <point x="741" y="1765" type="line"/>
      <point x="542" y="1765" type="line"/>
    </contour>
    <contour>
      <point x="307" y="1375" type="line"/>
      <point x="422" y="1375" type="line"/>
      <point x="331" y="1765" type="line"/>
      <point x="132" y="1765" type="line"/>
    </contour>
  </outline>
</glyph>
<glyph name="uni0311" format="1">
  <advance width="474"/>
  <unicode hex="0311"/>
  <outline>
    <contour>
      <point x="196" y="1052" type="move" name="_top"/>
    </contour>
    <contour>
      <point x="13" y="1279" type="curve"/>
      <point x="128" y="1279" type="line"/>
      <point x="136" y="1330"/>
      <point x="187" y="1363"/>
      <point x="234" y="1363" type="curve" smooth="yes"/>
      <point x="280" y="1363"/>
      <point x="322" y="1330"/>
      <point x="314" y="1279" type="curve"/>
      <point x="429" y="1279" type="line"/>
      <point x="439" y="1343"/>
      <point x="396" y="1463"/>
      <point x="250" y="1463" type="curve" smooth="yes"/>
      <point x="105" y="1463"/>
      <point x="23" y="1343"/>
    </contour>
  </outline>
</glyph>
<glyph name="Ohm" format="1">
  <advance width="1557"/>
  <unicode hex="2126"/>
  <outline>
    <contour>
      <point x="893" y="1455" type="curve"/>
      <point x="551" y="1455"/>
      <point x="307" y="1344"/>
      <point x="205" y="698" type="curve"/>
      <point x="144" y="309"/>
      <point x="219" y="173"/>
      <point x="371" y="102" type="curve"/>
      <point x="132" y="102" type="line"/>
      <point x="116" y="0" type="line"/>
      <point x="559" y="0" type="line"/>
      <point x="577" y="110" type="line"/>
      <point x="354" y="177"/>
      <point x="279" y="308"/>
      <point x="342" y="710" type="curve"/>
      <point x="429" y="1258"/>
      <point x="597" y="1324"/>
      <point x="873" y="1324" type="curve"/>
      <point x="1143" y="1324"/>
      <point x="1295" y="1258"/>
      <point x="1209" y="710" type="curve"/>
      <point x="1146" y="308"/>
      <point x="1028" y="177"/>
      <point x="785" y="110" type="curve"/>
      <point x="768" y="0" type="line"/>
      <point x="1211" y="0" type="line"/>
      <point x="1227" y="102" type="line"/>
      <point x="987" y="102" type="line"/>
      <point x="1161" y="173"/>
      <point x="1281" y="309"/>
      <point x="1342" y="698" type="curve"/>
      <point x="1445" y="1344"/>
      <point x="1230" y="1455"/>
    </contour>
  </outline>
</glyph>
<glyph name="estimated" format="1">
  <advance width="1195"/>
  <unicode hex="212E"/>
  <outline>
    <contour>
      <point x="718" y="1232" type="curve" smooth="yes"/>
      <point x="847" y="1232"/>
      <point x="964" y="1179"/>
      <point x="1017" y="1072" type="curve"/>
      <point x="971" y="779" type="line"/>
      <point x="309" y="779" type="line"/>
      <point x="356" y="1074" type="line"/>
      <point x="449" y="1178"/>
      <point x="590" y="1232"/>
    </contour>
    <contour>
      <point x="95" y="730" type="curve" smooth="yes"/>
      <point x="45" y="413"/>
      <point x="195" y="178"/>
      <point x="575" y="178" type="curve" smooth="yes"/>
      <point x="781" y="178"/>
      <point x="929" y="267"/>
      <point x="1047" y="385" type="curve"/>
      <point x="1021" y="419" type="line"/>
      <point x="885" y="296"/>
      <point x="709" y="240"/>
      <point x="576" y="240" type="curve" smooth="yes"/>
      <point x="450" y="240"/>
      <point x="316" y="293"/>
      <point x="244" y="395" type="curve"/>
      <point x="294" y="715" type="line"/>
      <point x="1107" y="715" type="line"/>
      <point x="1159" y="1044"/>
      <point x="1042" y="1280"/>
      <point x="724" y="1280" type="curve" smooth="yes"/>
      <point x="404" y="1280"/>
      <point x="144" y="1041"/>
    </contour>
  </outline>
</glyph>
<glyph name="summation" format="1">
  <advance width="1079"/>
  <unicode hex="2211"/>
  <outline>
    <contour>
      <point x="958" y="0" type="line"/>
      <point x="977" y="120" type="line"/>
      <point x="146" y="120" type="line"/>
      <point x="706" y="750" type="line"/>
      <point x="714" y="801" type="line"/>
      <point x="321" y="1310" type="line"/>
      <point x="1166" y="1310" type="line"/>
      <point x="1186" y="1428" type="line"/>
      <point x="216" y="1428" type="line"/>
      <point x="199" y="1331" type="line"/>
      <point x="605" y="762" type="line"/>
      <point x="6" y="107" type="line"/>
      <point x="-12" y="0" type="line"/>
    </contour>
  </outline>
</glyph>
<glyph name="infinity" format="1">
  <advance width="1411"/>
  <unicode hex="221E"/>
  <outline>
    <contour>
      <point x="239" y="560" type="curve" smooth="yes"/>
      <point x="414" y="560"/>
      <point x="686" y="806"/>
      <point x="686" y="806" type="curve"/>
      <point x="686" y="806"/>
      <point x="904" y="560"/>
      <point x="1079" y="560" type="curve" smooth="yes"/>
      <point x="1307" y="560"/>
      <point x="1422" y="743"/>
      <point x="1440" y="853" type="curve" smooth="yes"/>
      <point x="1458" y="964"/>
      <point x="1398" y="1151"/>
      <point x="1172" y="1151" type="curve" smooth="yes"/>
      <point x="997" y="1151"/>
      <point x="709" y="947"/>
      <point x="709" y="947" type="curve"/>
      <point x="709" y="947"/>
      <point x="507" y="1151"/>
      <point x="332" y="1151" type="curve" smooth="yes"/>
      <point x="104" y="1151"/>
      <point x="-10" y="966"/>
      <point x="-28" y="856" type="curve" smooth="yes"/>
      <point x="-46" y="746"/>
      <point x="12" y="560"/>
    </contour>
    <contour>
      <point x="249" y="630" type="curve" smooth="yes"/>
      <point x="148" y="630"/>
      <point x="109" y="749"/>
      <point x="125" y="855" type="curve" smooth="yes"/>
      <point x="141" y="960"/>
      <point x="222" y="1081"/>
      <point x="323" y="1081" type="curve" smooth="yes"/>
      <point x="397" y="1081"/>
      <point x="674" y="836"/>
      <point x="615" y="867" type="curve"/>
      <point x="684" y="899"/>
      <point x="323" y="630"/>
    </contour>
    <contour>
      <point x="1068" y="630" type="curve" smooth="yes"/>
      <point x="994" y="630"/>
      <point x="718" y="894"/>
      <point x="777" y="863" type="curve"/>
      <point x="708" y="831"/>
      <point x="1067" y="1081"/>
      <point x="1141" y="1081" type="curve" smooth="yes"/>
      <point x="1242" y="1081"/>
      <point x="1281" y="960"/>
      <point x="1265" y="855" type="curve" smooth="yes"/>
      <point x="1249" y="749"/>
      <point x="1169" y="630"/>
    </contour>
  </outline>
</glyph>
